<svg width="452" height="538" viewBox="0 0 452 538" fill="none" xmlns="http://www.w3.org/2000/svg">
<path d="M224 16.48C183.95 15.59 145.66 23.1701 110.77 43.2201C57.9801 73.5601 25.7701 118.77 16.0101 179.31C12.2001 202.96 19.1501 224.89 27.3201 246.51C34.3901 265.2 46.0301 280.9 60.2101 294.82C67.3601 301.82 68.4001 310.34 64.8301 319.15C59.5101 332.29 55.4201 345.59 57.2401 359.93C59.3801 376.73 69.4601 389 82.0001 399C118 427.54 170.25 427.61 204.38 394C222.26 376.38 221.96 355.25 209.7 335.45C204.14 326.45 196.23 319.74 186.96 314.62C164.54 302.22 142.24 312.04 135.77 337.57C133.34 347.15 132.28 357.07 130.05 366.71C126.69 381.17 116.48 388.03 103.39 385.19C88.5901 381.99 80.5901 370.33 82.5001 356.14C84.1701 343.71 88.5001 332.07 92.1401 320.25C95.9801 307.81 93.2101 298 83.7801 289.17C73.0801 279.17 62.5001 268.92 53.9401 256.89C30.7801 224.33 29.2301 189.41 45.7001 154.25C71.3601 99.45 114.23 64.2501 172.52 47.4701C188.524 42.7257 205.118 40.2714 221.81 40.18C258.66 40.27 292.29 49.76 318.39 78.01C334.58 95.54 342.77 116.72 347.18 139.7C347.48 141.24 347.59 142.83 347.98 144.35C349.38 149.76 347.98 154.35 342.36 155.51C336.93 156.62 334.36 152.42 333.25 147.62C331.79 141.26 330.88 134.75 329.03 128.51C317.03 87.8501 289.64 64.0701 248.03 57.2701C214.37 51.7601 182.03 57.55 150.84 71.12C126.5 81.72 104.93 96.3201 87.0301 115.91C63.8701 141.24 49.3901 170.49 50.1801 205.63C50.5701 222.89 57.7701 237.86 68.2601 251.43C77.8401 263.81 89.8001 273.91 100.26 285.43C109.17 295.21 109.26 305.98 107.68 317.62C106.13 328.88 101.31 339.23 98.5601 350.17C97.7101 353.51 97.6701 356.85 97.3001 360.17C96.5401 367.11 101 369.51 106.39 370.55C112.39 371.71 115.1 367.55 116.12 362.55C117.95 353.55 118.95 344.28 121.12 335.32C125.12 318.32 133.59 304.22 150.81 297.6C164.1 292.49 177.39 293.46 190.18 299.71C213.95 311.3 228.88 330.06 232.8 356.2C236.26 379.26 224.92 396.74 207.91 410.9C168.58 443.63 110.54 440.32 73.5701 411.48C42.9601 387.61 34.1601 355.42 49.9001 316.67C52.3701 310.6 51.4801 306.84 46.9001 302.41C21.1601 277.35 7.6301 246.02 1.6601 211.21C-3.4999 180.66 5.00009 152.18 17.0001 124.56C26.0398 103.564 38.7294 84.3368 54.4801 67.7701C83.1401 37.66 117.95 18.3301 158.29 8.66005C180.432 3.30157 203.14 0.638922 225.92 0.730045C258.48 0.910045 290.3 6.24004 319.71 20.79C358.63 40.04 386.94 69.6101 402.82 110.48C410.76 130.93 414.82 152.1 413.54 173.98C412.95 184.27 410.37 194.42 409.2 204.69C406.03 232.41 410.85 258.24 428.93 280.36C433.16 285.55 438.93 289.44 443.76 294.18C449.46 299.79 453.97 306.45 450.88 314.67C447.79 322.89 440.5 326.12 431.77 325.74C426.27 325.51 424.2 328.02 424.44 333.57C424.73 340.25 425.7 347.17 421.32 353.22C420.19 354.78 421.63 356.22 422.15 357.63C424.98 365.47 423.33 370.11 415.78 372.63C410.21 374.49 408.68 378.22 408.34 383.34C407.933 389.886 408.489 396.456 409.99 402.84C414.99 424.7 403.38 433.27 384.29 434.32C366.08 435.32 348.29 431.92 330.62 428.32C323.11 426.81 315.62 425.19 308.11 423.68C299.67 421.99 293.29 424.58 288.51 432.1C281.14 443.72 278.92 456.81 276.85 469.93C273.85 488.7 273.64 507.66 274.01 526.63C274.1 531.4 273.52 535.89 267.1 536.09C260.51 536.29 259.7 532.22 259.27 526.83C257.39 503.29 259.4 480.02 263.74 456.94C265.99 444.94 269.6 433.29 276.64 423.01C285.14 410.61 295.78 406.47 310.64 409.44C334.47 414.22 358.18 419.93 382.73 419.64C385.429 419.709 388.123 419.389 390.73 418.69C395.17 417.35 397.13 414.89 395.98 410.15C393.79 401.09 393.69 391.85 393.75 382.58C393.75 375.04 395.75 368.33 401.14 362.86C402.26 361.73 403.91 360.43 403.3 358.86C400.98 352.99 403.38 348.92 407.65 345.21C409.36 343.73 408.81 341.44 408.9 339.43C409.08 335.38 408.5 331.33 409.41 327.28C412.15 315.05 416.54 311.4 428.96 311C431.24 310.93 434.51 312.33 435.52 309.21C436.42 306.44 433.52 304.9 431.8 303.21C425.96 297.6 419.11 293.08 414.25 286.42C400.38 267.36 393.87 246.06 393.61 222.52C393.45 207.76 396.01 193.4 397.61 178.86C399.917 157.883 397.018 136.66 389.17 117.07C366.56 59.9101 323.17 29.2301 263.83 18.8801C258.308 17.7572 252.725 16.9591 247.11 16.4901C239.4 16.1701 231.69 16.48 224 16.48Z" fill="#DCA6AB"/>
<path d="M93.41 206.14C91.27 229.71 106.75 243.32 123.66 248.68C143.72 255.03 164.43 258.63 185.19 260.77C230.39 265.42 260.91 294.96 266.06 340.37C266.81 346.91 266.95 353.37 267.28 359.92C267.52 364.92 265.04 368.34 260.61 368.49C255.89 368.66 252.79 364.98 252.76 360.12C252.632 351.103 251.709 342.115 250 333.26C244.22 301.9 220.06 280.56 188.36 276.54C164.31 273.49 140.02 270.67 117.03 262.13C97.41 254.84 82.82 242.37 79.27 220.75C75.47 197.64 80.36 175.8 92.5 155.9C113.8 120.96 145.99 100.52 184.3 88.73C198.12 84.47 212.38 81.5 226.86 82.1C251.34 83.1 274.19 88.93 291.53 108.1C303.173 120.657 309.492 137.239 309.16 154.36C309.09 164.59 302.16 172.31 291.22 175.45C282.48 177.95 271.64 174.45 267.22 166.06C260.93 154.06 252.72 145.55 238.63 144.15C229.84 143.434 220.993 144.01 212.37 145.86C178.82 152.47 152.49 169.99 134.08 199.03C131.2 203.56 128.41 208.03 133.08 213.03C137.75 218.03 142.7 216.84 147.89 214.27C155.68 210.4 162.4 206.57 166.89 197.59C176.16 178.98 198.89 170.4 218.96 175.48C229.89 178.24 238.96 187.81 240.04 197.67C241.43 210.67 235.2 222.93 224.67 228.34C207.07 237.34 189.86 233.68 173.24 226.02C166.99 223.14 162.24 222.84 156.39 226.37C149.17 230.76 141.6 233.73 132.64 230.51C117.91 225.21 111.51 210.93 118.44 196.73C127.06 179.08 140.29 165.22 156.04 153.87C180.26 136.43 207.4 127.6 237.35 129.5C254.14 130.56 268.44 137.07 276.57 153.15C277.18 154.36 278.02 155.44 278.7 156.61C280.82 160.28 283.64 162.67 288.1 160.96C292.56 159.25 294.86 155.78 294.38 150.88C291.49 121.38 270.08 100.25 240.38 97.88C190.79 93.88 149.88 111.96 116.38 147.7C100.93 164.18 93.5 184.42 93.41 206.14ZM207.86 188.85C198.35 188.71 190.17 191.85 183.57 198.78C174.14 208.65 174.8 211.69 187.28 216.16C189.19 216.85 191.11 217.54 193.06 218.08C201.33 220.37 209.5 220.85 217.36 216.54C223.19 213.34 227.3 205.79 226.17 200.3C224.81 193.75 218.97 189.25 211.25 188.85C210.12 188.8 209 188.85 207.86 188.85Z" fill="#DCA6AB"/>
<path d="M381.31 146C381.38 167.31 370.78 181.39 348.8 188.82C329.72 195.28 310.8 202.2 294.3 214.03C283.5 221.75 274.12 230.65 271.16 244.54C268.28 258.07 273.73 269.27 280.47 280.11C283.32 284.68 287.08 288.69 290.1 293.17C292.29 296.43 292.7 299.96 289.27 302.91C285.84 305.86 282.06 305.79 279.06 302.45C266.18 288.05 255.83 272.29 255.51 252.12C255.2 231.79 266.04 217.26 281.16 205.26C297.85 192 317.06 183.7 337 176.9C341.514 175.47 345.939 173.77 350.25 171.81C369.84 162.36 369.18 144.32 362.82 128.39C361.48 125.04 359.82 121.82 358.4 118.51C356.59 114.34 357.4 110.85 361.73 109.02C366.06 107.19 369.54 108.18 372.09 112.45C377.944 122.677 381.116 134.218 381.31 146Z" fill="#DCA6AB"/>
<path d="M97.76 447C96.86 453.52 94.5399 459.64 92.0199 465.65C80.3999 493.32 61.0199 515.16 39.2999 535.15C35.7499 538.42 31.9599 538.39 28.4899 535.05C24.7799 531.5 25.49 528.05 28.92 524.54C41.18 512.32 53.9999 500.66 63.7699 486C71.8299 473.88 78.5499 461.25 82.6799 447.29C82.9999 446.21 83.3199 445.12 83.6799 444.07C85.2199 439.91 88.1699 437.83 92.6099 438.72C97.0499 439.61 98 443.05 97.76 447Z" fill="#DCA6AB"/>
</svg>
